<?xml version="1.0" encoding="UTF-8"?>
<svg width="22px" height="19px" viewBox="0 0 22 19" version="1.1" xmlns="http://www.w3.org/2000/svg" xmlns:xlink="http://www.w3.org/1999/xlink">
    <title>5D14D304-7A25-411D-BE63-DEDFE7E6ACE8</title>
    <g id="High-Fidelity" stroke="none" stroke-width="1" fill="none" fill-rule="evenodd">
        <g id="M-Tablet---Footer" transform="translate(-570.000000, -469.000000)" fill="#989898">
            <g id=".o-footer__fos-xl" transform="translate(0.000000, 76.000000)">
                <g id=".m-social-icons_all" transform="translate(539.000000, 390.000000)">
                    <g id="Layer_1" transform="translate(31.000000, 3.000000)">
                        <path d="M19.66088,5.1552 C19.67024,5.34672 19.67384,5.53896 19.67384,5.73336 C19.67384,11.63808 15.1796,18.44568 6.96152,18.44568 C4.43864,18.44568 2.08928,17.70624 0.11216,16.43904 C0.46208,16.48008 0.81704,16.50096 1.17776,16.50096 C3.27152,16.50096 5.19824,15.78672 6.7268,14.58864 C4.772,14.55192 3.12248,13.25952 2.55368,11.48472 C2.82584,11.538 3.10592,11.56464 3.39392,11.56464 C3.80144,11.56464 4.196,11.51136 4.57112,11.4084 C2.52632,10.998 0.98624,9.1908 0.98624,7.02792 C0.98624,7.00848 0.98624,6.98976 0.98696,6.97032 C1.58888,7.30512 2.27792,7.506 3.01088,7.52976 C1.81136,6.72696 1.02296,5.36112 1.02296,3.81024 C1.02296,2.9916 1.24328,2.22336 1.62776,1.56384 C3.83168,4.26672 7.12424,6.04584 10.838,6.2316 C10.76168,5.90544 10.72208,5.56344 10.72208,5.21352 C10.72208,2.7468 12.72224,0.74592 15.1904,0.74592 C16.4756,0.74592 17.63624,1.2888 18.45128,2.1564 C19.46936,1.95696 20.42552,1.584 21.2888,1.07208 C20.954,2.11608 20.24624,2.9916 19.3232,3.54384 C20.22824,3.43584 21.08936,3.19536 21.89,2.8404 C21.2924,3.73824 20.53424,4.5252 19.66088,5.1552 Z" id="Path"></path>
                    </g>
                </g>
            </g>
        </g>
    </g>
</svg>